<svg xmlns="http://www.w3.org/2000/svg" class="main-nav__title__full ng-scope" version="1.1" x="0" y="0" width="280" height="20" viewBox="0 0 280 20" enable-background="new 0 0 280 20" xml:space="preserve"><path class="bg-color-primary--svg main-nav-bg-color" d="M10.5 10.5l2.7 6H7.8l-1.7-5H5.4v5H0.7v-15h5.5c4.1 0 6.1 1.5 6.1 5C12.3 8.4 11.7 9.9 10.5 10.5zM6.3 5.3H5.4v2.8h0.9c0.9 0 1.2-0.1 1.2-1.4C7.5 5.5 7.2 5.3 6.3 5.3zM12.9 10.3c0-4.1 1.7-6.3 5.5-6.3 3.3 0 5.1 1.8 5.1 5.7 0 0.7 0 1.4-0.1 2h-5.9c0.2 1 0.9 1.4 2.3 1.4 1 0 2-0.1 3-0.4l0.5 3.3c-0.9 0.4-2.4 0.7-4 0.7C14.9 16.7 12.9 14.4 12.9 10.3zM19.5 8.9c0-1.1-0.3-1.5-1-1.5 -0.8 0-1 0.2-1.1 1.5H19.5zM31.6 16.5l-0.3-0.8c-0.7 0.7-1.5 1.1-2.8 1.1 -2.8 0-4.4-2-4.4-6.5 0-4.1 1.6-6.3 4.3-6.3 0.8 0 1.6 0.3 2.3 0.8l0 0 0-1.6v-2L35 0.9v15.6H31.6zM30.6 8.1c-0.2-0.2-0.5-0.4-0.9-0.4 -0.8 0-1.1 0.5-1.1 2.8 0 2.5 0.2 2.9 1.1 2.9 0.4 0 0.8-0.2 0.9-0.6V8.1zM46.7 16.5h-6.1v-15h6.2c3.4 0 5.2 1.6 5.2 3.9C52 7 51.3 8 50.2 8.5v0c1.5 0.5 2.3 1.7 2.3 3.5C52.4 14.7 50.7 16.5 46.7 16.5zM46.7 5.3h-1.6v1.9h1.6c0.7 0 0.8-0.2 0.8-1C47.5 5.5 47.3 5.3 46.7 5.3zM46.7 10.6h-1.6v2.1h1.7c0.7 0 0.9-0.2 0.9-1.1C47.7 10.9 47.5 10.6 46.7 10.6zM64 12c0 3.2-1.7 4.7-5.3 4.7 -3.6 0-5.3-1.6-5.3-4.7V4.2h4.3V12c0 0.7 0.3 1.1 1 1.1 0.7 0 1-0.3 1-1.1V4.2H64V12zM65.3 16.5V1.1l4.4-0.2v15.6H65.3zM71.2 16.5V1.1l4.4-0.2v15.6H71.2zM86.3 1.5l2.2 6.4L89 9.5h0.1l0.5-1.5 2.3-6.4h5.1v15h-4.3v-4.9l0-1.6 -0.1 0 -0.5 1.6 -1.7 5h-3l-1.7-5 -0.5-1.6 0 0 0 1.6v5h-4.1v-15H86.3zM108.9 12c0 3.2-1.7 4.7-5.3 4.7 -3.6 0-5.3-1.6-5.3-4.7V4.2h4.3V12c0 0.7 0.3 1.1 1 1.1 0.7 0 1-0.3 1-1.1V4.2h4.3V12zM113.7 16.7c-1.4 0-2.6-0.2-3.6-0.7l0.4-3.4c1 0.5 2.3 0.7 3.2 0.7 0.6 0 0.9-0.2 0.9-0.5 0-1.2-4.7-0.4-4.7-4.7 0-2.3 1.5-4.1 4.8-4.1 1.2 0 2.4 0.3 3.4 0.6L117.8 8c-0.9-0.3-2.3-0.5-3.1-0.5 -0.5 0-0.7 0.1-0.7 0.4 0 1.2 4.6 0.4 4.6 4.5C118.6 15 117.2 16.7 113.7 16.7zM121.9 3.6c-1.6 0-2.3-0.5-2.3-1.6 0-1.1 0.7-1.6 2.3-1.6 1.6 0 2.3 0.6 2.3 1.6C124.2 3 123.5 3.6 121.9 3.6zM119.7 16.5V4.3l4.4-0.2v12.4H119.7zM133.5 7.9c-0.5-0.1-1-0.2-1.5-0.2 -1.7 0-2.2 0.6-2.2 2.8 0 1.8 0.8 2.7 2.1 2.7 0.6 0 1.1-0.1 1.6-0.2l0.3 3.2c-0.7 0.4-1.6 0.6-2.8 0.6 -3.6 0-5.7-2.1-5.7-6.3 0-4.1 1.7-6.5 5.7-6.5 0.9 0 2 0.2 2.7 0.4L133.5 7.9zM146.8 14.2h-3.4l-0.4 2.3H138l4.3-15h5.7l4.4 15h-5.2L146.8 14.2zM144.8 7.2l-0.6 3.2h1.9l-0.6-3.2 -0.3-1.6h-0.1L144.8 7.2zM160.3 7.9c-0.5-0.1-1-0.2-1.5-0.2 -1.7 0-2.2 0.6-2.2 2.8 0 1.8 0.8 2.7 2.1 2.7 0.6 0 1.1-0.1 1.6-0.2l0.3 3.2c-0.7 0.4-1.6 0.6-2.8 0.6 -3.6 0-5.7-2.1-5.7-6.3 0-4.1 1.7-6.5 5.7-6.5 0.9 0 2 0.2 2.7 0.4L160.3 7.9zM167.6 15.6c-0.7 0.7-1.7 1.1-2.8 1.1 -2.3 0-3.7-1.4-3.7-4.2 0-2.3 1.6-4 4.1-4 0.7 0 1.2 0.1 1.7 0.2V8.5c0-0.6-0.4-1.1-1.7-1.1 -1.3 0-2 0.2-3.1 0.6l-0.3-3.3c1.2-0.5 2.7-0.8 4.2-0.8 3.9 0 5.1 1.6 5.1 5.2v7.4h-3.3L167.6 15.6zM166.9 11.5c-0.2-0.1-0.5-0.1-0.8-0.1 -0.6 0-0.9 0.3-0.9 1.1 0 0.7 0.3 0.9 0.8 0.9s0.9-0.3 0.9-0.8V11.5zM179.6 16.5l-0.3-0.8c-0.7 0.7-1.5 1.1-2.8 1.1 -2.8 0-4.4-2-4.4-6.5 0-4.1 1.6-6.3 4.3-6.3 0.8 0 1.6 0.3 2.3 0.8l0 0 0-1.6v-2l4.3-0.2v15.6H179.6zM178.7 8.1c-0.2-0.2-0.5-0.4-0.9-0.4 -0.8 0-1.1 0.5-1.1 2.8 0 2.5 0.2 2.9 1.1 2.9 0.4 0 0.8-0.2 0.9-0.6V8.1zM184.1 10.3c0-4.1 1.7-6.3 5.5-6.3 3.3 0 5.1 1.8 5.1 5.7 0 0.7 0 1.4-0.1 2h-5.9c0.2 1 0.9 1.4 2.3 1.4 1 0 2-0.1 3-0.4l0.5 3.3c-0.9 0.4-2.4 0.7-4 0.7C186.1 16.7 184.1 14.4 184.1 10.3zM190.6 8.9c0-1.1-0.3-1.5-1-1.5 -0.8 0-1 0.2-1.1 1.5H190.6zM208 16.5V8.7c0-0.8-0.3-1.1-0.9-1.1 -0.7 0-0.9 0.4-0.9 1.1v7.8h-4.3V8.7c0-0.8-0.3-1.1-0.9-1.1 -0.4 0-0.7 0.2-0.9 0.4v8.5h-4.3V4.3l3.1-0.2 0.6 1c0.8-0.7 1.8-1.1 2.9-1.1 1.3 0 2.3 0.5 2.9 1.4 0.8-1 1.9-1.4 3.2-1.4 2.4 0 4 1.6 4 4.7v7.8H208zM217.6 16.1l0-0.1 -4.8-11.8h4.9l1.9 7h0.1l0.2-1.6 1-5.4h4.6L221.9 16c-0.8 2.7-2.5 3.9-5 3.9 -0.8 0-1.5-0.1-2.2-0.4l0.3-2.9c0.4 0.1 0.7 0.2 1.1 0.2C216.8 16.8 217.4 16.7 217.6 16.1zM236 16.5h-5.7v-15h5.6c4.7 0 6.6 2.2 6.6 7.4C242.6 14.4 240.4 16.5 236 16.5zM236 5.5h-1v7h1c1.4 0 1.7-0.3 1.7-3.6C237.7 5.9 237.4 5.5 236 5.5zM249.8 15.6c-0.7 0.7-1.7 1.1-2.8 1.1 -2.3 0-3.7-1.4-3.7-4.2 0-2.3 1.6-4 4.1-4 0.7 0 1.2 0.1 1.7 0.2V8.5c0-0.6-0.4-1.1-1.7-1.1 -1.3 0-2 0.2-3.1 0.6L244 4.7c1.2-0.5 2.7-0.8 4.2-0.8 3.9 0 5.1 1.6 5.1 5.2v7.4h-3.3L249.8 15.6zM249.1 11.5c-0.2-0.1-0.5-0.1-0.8-0.1 -0.6 0-0.9 0.3-0.9 1.1 0 0.7 0.3 0.9 0.8 0.9s0.9-0.3 0.9-0.8V11.5zM257.1 3.6c-1.6 0-2.3-0.5-2.3-1.6 0-1.1 0.7-1.6 2.3-1.6 1.6 0 2.3 0.6 2.3 1.6C259.4 3 258.7 3.6 257.1 3.6zM254.9 16.5V4.3l4.4-0.2v12.4H254.9zM260.9 16.5V1.1l4.4-0.2v15.6H260.9zM270.7 16.1l0-0.1L266 4.2h4.9l1.9 7h0.1l0.2-1.6 1-5.4h4.6L275 16c-0.8 2.7-2.5 3.9-5 3.9 -0.8 0-1.5-0.1-2.2-0.4l0.3-2.9c0.4 0.1 0.7 0.2 1.1 0.2C269.9 16.8 270.5 16.7 270.7 16.1z"></path></svg>